<?xml version="1.0" encoding="UTF-8"?>
<svg id="Layer_1" data-name="Layer 1" xmlns="http://www.w3.org/2000/svg" xmlns:xlink="http://www.w3.org/1999/xlink" viewBox="0 0 64 64">
  <defs>
    <style>
      .cls-1 {
        fill: url(#Sky);
      }

      .cls-1, .cls-2, .cls-3 {
        stroke-width: 0px;
      }

      .cls-2 {
        fill: url(#linear-gradient);
      }

      .cls-3 {
        fill: #000;
      }
    </style>
    <linearGradient id="linear-gradient" x1="0" y1="32.04" x2="63.92" y2="32.04" gradientUnits="userSpaceOnUse">
      <stop offset="0" stop-color="#1b1717"/>
      <stop offset=".11" stop-color="#191d20"/>
      <stop offset=".29" stop-color="#162d39"/>
      <stop offset=".51" stop-color="#104862"/>
      <stop offset=".57" stop-color="#0f506e"/>
      <stop offset=".87" stop-color="#001929"/>
      <stop offset="1" stop-color="#001421"/>
    </linearGradient>
    <linearGradient id="Sky" x1="7.1" y1="31.86" x2="56.82" y2="31.86" gradientUnits="userSpaceOnUse">
      <stop offset="0" stop-color="#cce0f4"/>
      <stop offset=".06" stop-color="#c2dcf2"/>
      <stop offset=".17" stop-color="#a9d2ee"/>
      <stop offset=".31" stop-color="#7fc2e7"/>
      <stop offset=".46" stop-color="#46abdd"/>
      <stop offset=".57" stop-color="#1e9cd7"/>
      <stop offset=".87" stop-color="#0075be"/>
      <stop offset=".99" stop-color="#005b97"/>
    </linearGradient>
  </defs>
  <rect class="cls-2" y=".08" width="63.92" height="63.92" rx="8" ry="8"/>
  <g>
    <path class="cls-3" d="M57.14,31.89c-.19-.72-.9-1.14-1.68-.99-.8.15-1.41.62-1.77,1.36-.17.34-.3.71-.43,1.07-.05.13-.09.26-.14.39-.07-.2-.13-.39-.16-.58-.13-.7-.23-1.41-.33-2.11-.11-.76-.22-1.53-.36-2.29-.19-1.02-.37-1.93-.77-2.77-.33-.71-.92-1.14-1.61-1.19-.72-.06-1.41.35-1.85,1.06-.26.42-.44.83-.52,1.2-.28,1.33-.56,2.7-.76,4.08-.2,1.42-.39,2.85-.57,4.27-.16,1.26-.33,2.52-.51,3.78-.13-1.57-.25-3.15-.37-4.72-.14-1.73-.27-3.47-.42-5.2l-.1-1.22c-.17-2.16-.35-4.39-.59-6.58-.09-.82-.32-1.68-.68-2.49-.29-.65-.81-1.06-1.44-1.14-.65-.08-1.29.23-1.74.82-.31.41-.54.88-.66,1.34l-.11.42c-.23.89-.46,1.81-.54,2.74-.2,2.57-.37,5.15-.54,7.72-.12,1.8-.24,3.6-.37,5.4-.23,3.15-.49,6.29-.72,9-.01-.08-.03-.16-.04-.24-.25-1.35-.5-2.75-.61-4.12-.22-2.75-.39-5.54-.55-8.25-.15-2.44-.3-4.88-.48-7.31-.19-2.54-.52-5.04-.88-7.58-.1-.74-.38-1.54-.8-2.31-.38-.7-1-1.11-1.68-1.12-.66-.02-1.36.4-1.78,1.11-.24.41-.44.89-.58,1.42-.68,2.55-.87,5.18-1.05,7.73l-.03.49c-.17,2.32-.32,4.65-.47,6.97-.21,3.24-.42,6.48-.67,9.72-.09,1.16-.32,2.34-.54,3.49-.16-1.05-.32-2.14-.39-3.2-.15-2.33-.28-4.65-.41-6.98-.16-2.84-.32-5.77-.52-8.65-.12-1.69-.41-3.39-.69-5.03l-.18-1.08c-.1-.63-.43-1.2-.68-1.58-.43-.64-1.06-.98-1.71-.93-.66.05-1.23.47-1.57,1.17-.17.34-.39.85-.45,1.4l-.08.7c-.28,2.55-.57,5.19-.79,7.8-.15,1.86-.28,3.73-.4,5.6-.09,1.44-.19,2.88-.3,4.32-.02.21-.04.41-.07.62-.09-.42-.18-.84-.23-1.25-.18-1.28-.34-2.57-.49-3.85-.2-1.59-.39-3.18-.63-4.77-.17-1.18-.53-2.31-.88-3.38-.28-.87-1.01-1.41-1.87-1.38-.59,0-1.41.26-1.92,1.41-.1.23-.23.55-.3.88-.12.61-.22,1.22-.33,1.84l-.3,1.78c-.17,1-.34,2-.53,2.99l-.14-.37c-.15-.4-.31-.81-.52-1.21-.38-.73-1.05-1.16-1.89-1.23-.71-.06-1.25.32-1.46,1.01-.1.33-.06.69.12,1,.18.31.46.52.81.61.13.03.19.07.29.33.06.18.12.36.18.53.14.41.28.84.47,1.25.4.85,1.1,1.38,1.91,1.45.8.07,1.58-.33,2.12-1.1.38-.54.65-1.15.76-1.71.22-1.08.39-2.18.56-3.25.06-.37.12-.74.18-1.11.18,1.23.37,2.46.55,3.69l.06.38c.09.64.18,1.27.27,1.91.22,1.56.45,3.18.74,4.76.15.81.5,1.66,1,2.42.45.68,1.12,1.05,1.82.97.71-.07,1.33-.57,1.65-1.35.28-.67.43-1.23.48-1.76.31-3.27.61-6.63.87-9.96.11-1.37.2-2.74.3-4.11.08-1.22.17-2.44.26-3.66.04.25.07.51.09.76.17,2.26.31,4.51.45,6.77.11,1.74.22,3.47.34,5.21l.02.26c.22,3.19.45,6.48.77,9.72.1.98.39,2.04.85,3.06.29.65.83,1.07,1.48,1.14.07,0,.13.01.2.01.61,0,1.2-.31,1.61-.86.38-.5.66-1.08.8-1.63l.09-.38c.28-1.13.57-2.29.67-3.48.24-2.85.44-5.7.64-8.55.16-2.21.31-4.42.49-6.62.25-3.26.57-6.51.88-9.56,0-.06.01-.12.02-.18.16.78.31,1.59.37,2.38.18,2.34.33,4.69.49,7.03.17,2.57.34,5.15.54,7.72.27,3.44.65,6.89.99,9.8.17,1.42.53,2.48,1.13,3.34.47.66,1.12,1.01,1.8.98.68-.04,1.28-.47,1.67-1.19.1-.18.21-.39.26-.63.06-.29.14-.58.21-.86.18-.72.37-1.47.43-2.23.2-2.45.36-4.9.51-7.36.09-1.4.18-2.8.28-4.19.23-3.36.48-6.71.75-10.07.12,1.04.24,2.1.32,3.15.14,1.8.25,3.6.36,5.4.14,2.18.28,4.36.45,6.53.09,1.14.36,2.26.61,3.35l.12.5c.2.85.81,1.4,1.64,1.49.81.08,1.51-.29,1.97-1.05.28-.45.58-.99.71-1.57.3-1.36.64-2.98.87-4.62.2-1.38.36-2.76.53-4.14.11-.93.22-1.86.34-2.78.11.76.23,1.53.37,2.29.25,1.26.54,2.35.89,3.31.38,1.04,1.31,1.65,2.4,1.6,1.44-.06,1.93-1.35,2.09-1.77.08-.22.16-.44.23-.67.09-.29.19-.57.31-.84.04-.08.15-.19.24-.24.74-.33,1.11-.97.94-1.62ZM14.81,27.5h0Z"/>
    <path class="cls-1" d="M56.77,31.53c-.19-.72-.9-1.14-1.68-.99-.8.15-1.41.62-1.77,1.36-.17.34-.3.71-.43,1.07-.05.13-.09.26-.14.39-.07-.2-.13-.39-.16-.58-.13-.7-.23-1.41-.33-2.11-.11-.76-.22-1.53-.36-2.29-.19-1.02-.37-1.93-.77-2.77-.33-.71-.92-1.14-1.61-1.19-.72-.06-1.41.35-1.85,1.06-.26.42-.44.83-.52,1.2-.28,1.33-.56,2.7-.76,4.08-.2,1.42-.39,2.85-.57,4.27-.16,1.26-.33,2.52-.51,3.78-.13-1.57-.25-3.15-.37-4.72-.14-1.73-.27-3.47-.42-5.2l-.1-1.22c-.17-2.16-.35-4.39-.59-6.58-.09-.82-.32-1.68-.68-2.49-.29-.65-.81-1.06-1.44-1.14-.65-.08-1.29.23-1.74.82-.31.41-.54.88-.66,1.34l-.11.42c-.23.89-.46,1.81-.54,2.74-.2,2.57-.37,5.15-.54,7.72-.12,1.8-.24,3.6-.37,5.4-.23,3.15-.49,6.29-.72,9-.01-.08-.03-.16-.04-.24-.25-1.35-.5-2.75-.61-4.12-.22-2.75-.39-5.54-.55-8.25-.15-2.44-.3-4.88-.48-7.31-.19-2.54-.52-5.04-.88-7.58-.1-.74-.38-1.54-.8-2.31-.38-.7-1-1.11-1.68-1.12-.66-.02-1.36.4-1.78,1.11-.24.41-.44.89-.58,1.42-.68,2.55-.87,5.18-1.05,7.73l-.03.49c-.17,2.32-.32,4.65-.47,6.97-.21,3.24-.42,6.48-.67,9.72-.09,1.16-.32,2.34-.54,3.49-.16-1.05-.32-2.14-.39-3.2-.15-2.33-.28-4.65-.41-6.98-.16-2.84-.32-5.77-.52-8.65-.12-1.69-.41-3.39-.69-5.03l-.18-1.08c-.1-.63-.43-1.2-.68-1.58-.43-.64-1.06-.98-1.71-.93-.66.05-1.23.47-1.57,1.17-.17.34-.39.85-.45,1.4l-.08.7c-.28,2.55-.57,5.19-.79,7.8-.15,1.86-.28,3.73-.4,5.6-.09,1.44-.19,2.88-.3,4.32-.02.21-.04.41-.07.62-.09-.42-.18-.84-.23-1.25-.18-1.28-.34-2.57-.49-3.85-.2-1.59-.39-3.18-.63-4.77-.17-1.18-.53-2.31-.88-3.38-.28-.87-1.01-1.41-1.87-1.38-.59,0-1.41.26-1.92,1.41-.1.23-.23.55-.3.88-.12.61-.22,1.22-.33,1.84l-.3,1.78c-.17,1-.34,2-.53,2.99l-.14-.37c-.15-.4-.31-.81-.52-1.21-.38-.73-1.05-1.16-1.89-1.23-.71-.06-1.25.32-1.46,1.01-.1.33-.06.69.12,1,.18.31.46.52.81.61.13.03.19.07.29.33.06.18.12.36.18.53.14.41.28.84.47,1.25.4.85,1.1,1.38,1.91,1.45.8.07,1.58-.33,2.12-1.1.38-.54.65-1.15.76-1.71.22-1.08.39-2.18.56-3.25.06-.37.12-.74.18-1.11.18,1.23.37,2.46.55,3.69l.06.38c.09.64.18,1.27.27,1.91.22,1.56.45,3.18.74,4.76.15.81.5,1.66,1,2.42.45.68,1.12,1.05,1.82.97.71-.07,1.33-.57,1.65-1.35.28-.67.43-1.23.48-1.76.31-3.27.61-6.63.87-9.96.11-1.37.2-2.74.3-4.11.08-1.22.17-2.44.26-3.66.04.25.07.51.09.76.17,2.26.31,4.51.45,6.77.11,1.74.22,3.47.34,5.21l.02.26c.22,3.19.45,6.48.77,9.72.1.98.39,2.04.85,3.06.29.65.83,1.07,1.48,1.14.07,0,.13.01.2.01.61,0,1.2-.31,1.61-.86.38-.5.66-1.08.8-1.63l.09-.38c.28-1.13.57-2.29.67-3.48.24-2.85.44-5.7.64-8.55.16-2.21.31-4.42.49-6.62.25-3.26.57-6.51.88-9.56,0-.06.01-.12.02-.18.16.78.31,1.59.37,2.38.18,2.34.33,4.69.49,7.03.17,2.57.34,5.15.54,7.72.27,3.44.65,6.89.99,9.8.17,1.42.53,2.48,1.13,3.34.47.66,1.12,1.01,1.8.98.68-.04,1.28-.47,1.67-1.19.1-.18.21-.39.26-.63.06-.29.14-.58.21-.86.18-.72.37-1.47.43-2.23.2-2.45.36-4.9.51-7.36.09-1.4.18-2.8.28-4.19.23-3.36.48-6.71.75-10.07.12,1.04.24,2.1.32,3.15.14,1.8.25,3.6.36,5.4.14,2.18.28,4.36.45,6.53.09,1.14.36,2.26.61,3.35l.12.5c.2.85.81,1.4,1.64,1.49.81.08,1.51-.29,1.97-1.05.28-.45.58-.99.71-1.57.3-1.36.64-2.98.87-4.62.2-1.38.36-2.76.53-4.14.11-.93.22-1.86.34-2.78.11.76.23,1.53.37,2.29.25,1.26.54,2.35.89,3.31.38,1.04,1.31,1.65,2.4,1.6,1.44-.06,1.93-1.35,2.09-1.77.08-.22.16-.44.23-.67.09-.29.19-.57.31-.84.04-.08.15-.19.24-.24.74-.33,1.11-.97.94-1.62ZM14.45,27.13h0Z"/>
  </g>
</svg>